<svg width="100" height="100" viewBox="0 0 100 100" fill="none" xmlns="http://www.w3.org/2000/svg">
<rect width="100" height="100" rx="12.2687" fill="black"/>
<path d="M27.5862 76.1879V25.0379H35.0862L35.3112 33.5879L34.4112 33.1379C35.4112 30.1879 37.0612 27.9629 39.3612 26.4629C41.6612 24.9129 44.3112 24.1379 47.3112 24.1379C51.2112 24.1379 54.4112 25.1129 56.9112 27.0629C59.4612 28.9629 61.3362 31.4879 62.5362 34.6379C63.7862 37.7879 64.4112 41.2379 64.4112 44.9879C64.4112 48.7379 63.7862 52.1879 62.5362 55.3379C61.3362 58.4879 59.4612 61.0379 56.9112 62.9879C54.4112 64.8879 51.2112 65.8379 47.3112 65.8379C45.3112 65.8379 43.4362 65.4879 41.6862 64.7879C39.9362 64.0879 38.4362 63.1129 37.1862 61.8629C35.9862 60.5629 35.1362 59.0379 34.6362 57.2879L35.5362 56.3879V76.1879H27.5862ZM45.8862 58.9379C49.0862 58.9379 51.5862 57.7129 53.3862 55.2629C55.2362 52.8129 56.1612 49.3879 56.1612 44.9879C56.1612 40.5879 55.2362 37.1629 53.3862 34.7129C51.5862 32.2629 49.0862 31.0379 45.8862 31.0379C43.7862 31.0379 41.9612 31.5629 40.4112 32.6129C38.8612 33.6129 37.6612 35.1629 36.8112 37.2629C35.9612 39.3629 35.5362 41.9379 35.5362 44.9879C35.5362 48.0379 35.9362 50.6129 36.7362 52.7129C37.5862 54.8129 38.7862 56.3879 40.3362 57.4379C41.9362 58.4379 43.7862 58.9379 45.8862 58.9379Z" fill="white"/>
<path d="M34.2672 59.4828H72.1983V67.5862H34.2672V59.4828Z" fill="white"/>
</svg>
