<svg width="607" height="607" viewBox="0 0 607 607" fill="none" xmlns="http://www.w3.org/2000/svg">
<rect width="606.971" height="606.971" rx="75.8714" fill="black"/>
<path d="M167.44 462.439V151.973H212.963L214.329 203.869L208.866 201.138C214.936 183.232 224.951 169.727 238.911 160.622C252.872 151.214 268.956 146.51 287.166 146.51C310.837 146.51 330.261 152.428 345.435 164.264C360.913 175.797 372.293 191.123 379.577 210.242C387.164 229.362 390.958 250.302 390.958 273.064C390.958 295.825 387.164 316.766 379.577 335.885C372.293 355.005 360.913 370.483 345.435 382.319C330.261 393.851 310.837 399.617 287.166 399.617C275.026 399.617 263.645 397.493 253.023 393.244C242.401 388.995 233.297 383.078 225.71 375.49C218.426 367.6 213.267 358.343 210.232 347.721L215.695 342.259V462.439H167.44ZM278.516 357.736C297.939 357.736 313.114 350.301 324.039 335.43C335.268 320.559 340.883 299.771 340.883 273.064C340.883 246.357 335.268 225.568 324.039 210.698C313.114 195.827 297.939 188.391 278.516 188.391C265.77 188.391 254.693 191.578 245.285 197.951C235.876 204.021 228.593 213.429 223.434 226.175C218.274 238.922 215.695 254.551 215.695 273.064C215.695 291.577 218.123 307.206 222.978 319.952C228.138 332.699 235.421 342.259 244.829 348.632C254.541 354.702 265.77 357.736 278.516 357.736Z" fill="white"/>
<path d="M207.992 361.043H438.223V410.229H207.992V361.043Z" fill="white"/>
</svg>
